<svg width="201" height="56" viewBox="0 0 201 56" fill="none" xmlns="http://www.w3.org/2000/svg">
<path d="M40.1113 32.2567C38.3587 30.0602 36.1187 28.7119 33.4022 28.2062C35.8886 27.4288 37.8822 26.1076 39.3829 24.2264C40.8835 22.3507 41.6284 20.0183 41.6284 17.2237C41.6284 14.8478 41.015 12.7165 39.7936 10.8408C38.5723 8.97051 36.7759 7.50255 34.3989 6.44779C32.0275 5.39304 29.2069 4.87109 25.9317 4.87109H6.02344V52.7756H26.8354C30.1106 52.7756 32.9366 52.2264 35.341 51.1227C37.7343 50.0245 39.5691 48.5076 40.8342 46.5612C42.1049 44.6202 42.7402 42.3639 42.7402 39.8031C42.7402 36.9651 41.8584 34.4532 40.1113 32.2567ZM15.7065 12.6295H24.5516C26.8573 12.6295 28.6318 13.1515 29.8751 14.2062C31.1183 15.261 31.7427 16.7507 31.7427 18.6699C31.7427 20.5892 31.1183 22.0625 29.8751 23.0956C28.6318 24.1231 26.8573 24.6396 24.5516 24.6396H15.7065V12.6295ZM30.9431 43.3045C29.6341 44.4027 27.7994 44.9519 25.4498 44.9519H15.701V32.0501H25.2362C27.5858 32.0501 29.4534 32.6373 30.839 33.8062C32.2192 34.9697 32.9092 36.5845 32.9092 38.6451C32.9092 40.7057 32.2575 42.2117 30.9376 43.3099" fill="#040000"/>
<path d="M71.5847 33.355C75.2268 32.3926 77.9707 30.642 79.8109 28.1029C81.6566 25.5585 82.5767 22.715 82.5767 19.5507C82.5767 16.8051 81.9195 14.3313 80.605 12.1076C79.2961 9.88935 77.3244 8.12779 74.701 6.82294C72.0721 5.52352 68.8956 4.87109 65.1549 4.87109H47.043V52.7756H56.726V34.0998H61.2882L71.9352 52.7756H83.1299L71.5847 33.3495V33.355ZM64.8153 26.9014H56.726V12.8361H64.8153C67.4442 12.8361 69.3994 13.4451 70.692 14.6575C71.979 15.8699 72.6253 17.5771 72.6253 19.7682C72.6253 21.9592 71.979 23.7589 70.692 25.0202C69.3994 26.2761 67.4387 26.9068 64.8153 26.9068" fill="#040000"/>
<path d="M184.83 4.80469V37.7468L162.912 4.80469H153.234V52.7798H162.912V19.9029L184.83 52.7798H194.513V4.80469H184.83Z" fill="#040000"/>
<path d="M90.0771 41.6094H100.072L96.1947 52.7822H86.0352L90.0771 41.6094Z" fill="#040000"/>
<path d="M132.007 52.7798H121.782L117.904 41.607L114.92 33.0167L108.983 15.9231L103.057 33.0167H93.1875L103.391 4.80469H114.657L124.855 33.0167L127.971 41.607L132.007 52.7798Z" fill="#040000"/>
<path d="M124.853 33.0195H114.918H103.055L100.07 41.6098H117.903H127.969L124.853 33.0195Z" fill="#EA5019"/>
<path d="M134.295 9.17234C134.295 5.60574 137.203 2.71875 140.79 2.71875C144.377 2.71875 147.291 5.60574 147.291 9.17234C147.291 12.7389 144.383 15.6259 140.79 15.6259C137.197 15.6259 134.289 12.7389 134.289 9.17234" fill="#040000"/>
<path d="M146.027 19.0781H136.344V52.7814H146.027V19.0781Z" fill="#040000"/>
</svg>
