<?xml version="1.0" encoding="utf-8"?>
<!-- Generator: Adobe Illustrator 25.0.1, SVG Export Plug-In . SVG Version: 6.00 Build 0)  -->
<svg version="1.1" id="Layer_1" xmlns="http://www.w3.org/2000/svg" xmlns:xlink="http://www.w3.org/1999/xlink" x="0px" y="0px"
	 viewBox="0 0 1000 166" style="enable-background:new 0 0 1000 166;" xml:space="preserve">
<style type="text/css">
	.st0{fill:#FFFFFF;}
	.st1{fill:#FC5E20;}
</style>
<path class="st0" d="M204.9,2.1l-58.1,161.9h34l10.6-30.8h64.4l10.6,30.8h34.3L242.6,2.1H204.9z M200.3,107.2l23.4-67.6l23.4,67.6
	H200.3z"/>
<path class="st0" d="M419.3,113.2L345.9,2.1h-32.4v161.9h32.4V53l73.4,110.9h32.4V2.1h-32.4V113.2z"/>
<path class="st0" d="M527.8,36c7.3-4.4,15.7-6.6,25.1-6.6c8.8,0,16.5,1.9,23.3,5.8c6.7,3.9,11.9,9.6,15.6,17.4h37.3
	c-5.4-16.4-14.9-29.2-28.5-38.4C587,4.9,571.2,0.2,553.1,0.2c-15.4,0-29.4,3.5-41.8,10.5c-12.4,7-22.2,16.8-29.4,29.4
	c-7.2,12.6-10.8,26.8-10.8,42.7s3.6,30.1,10.8,42.6c7.2,12.5,17,22.3,29.4,29.3s26.4,10.5,41.8,10.5c18.2,0,34.1-4.6,47.6-13.8
	c13.5-9.2,23-22,28.4-38.6h-37.3c-3.7,7.7-8.9,13.5-15.6,17.5c-6.7,3.9-14.5,5.9-23.3,5.9c-9.4,0-17.8-2.2-25.1-6.6
	c-7.3-4.4-13.1-10.7-17.1-18.8c-4.1-8.1-6.1-17.5-6.1-28.1s2-20.2,6.1-28.2C514.7,46.6,520.5,40.4,527.8,36"/>
<path class="st0" d="M763.5,10.6C750.9,3.5,737,0,721.7,0c-15.3,0-29,3.5-41.7,10.6c-12.7,7.1-22.7,16.9-30.1,29.5
	c-7.4,12.6-11.1,26.7-11.1,42.5s3.7,30.1,11.1,42.7c7.4,12.6,17.4,22.4,30.1,29.5c12.7,7.1,26.5,10.7,41.7,10.7s29-3.6,41.7-10.7
	c12.7-7.1,22.7-16.9,30-29.5c7.3-12.6,11-26.8,11-42.7s-3.7-29.9-11-42.5S776.1,17.7,763.5,10.6 M764.8,111.1
	c-4.2,8.2-10,14.5-17.4,18.9c-7.4,4.4-16,6.6-25.7,6.6c-9.7,0-18.3-2.2-25.8-6.6c-7.5-4.4-13.3-10.7-17.5-18.9
	c-4.2-8.2-6.2-17.7-6.2-28.5s2.1-20.3,6.2-28.4c4.2-8.1,10-14.3,17.5-18.6c7.5-4.3,16.1-6.5,25.8-6.5c9.7,0,18.3,2.2,25.7,6.5
	c7.4,4.3,13.2,10.5,17.4,18.6c4.2,8.1,6.2,17.6,6.2,28.4S768.9,103,764.8,111.1z"/>
<path class="st0" d="M963.4,2.3L912,122.5L860.6,2.3h-36.8v161.6h32.4V58.8l43.5,105.1h24.5l43.3-105.1v105.1h32.4V2.3H963.4z"/>
<path class="st0" d="M32.4,2.3H0v63.3h32.4V2.3z"/>
<path class="st0" d="M32.4,98H0v65.9h32.4V98z"/>
<path class="st0" d="M134.1,2.3h-32.4v63.3h32.4V2.3z"/>
<path class="st1" d="M134.1,65.6H32.4V98h101.7V65.6z"/>
<path class="st0" d="M134.1,98h-32.4v65.9h32.4V98z"/>
</svg>
