<svg width="138" height="52" viewBox="0 0 1000 166" fill="none" preserveAspectRatio="xMidYMid meet" aria-labelledby="biHancom" xmlns="http://www.w3.org/2000/svg" color="#000"><title id="biHancom">한글</title><path d="M204.91 2.07996L146.79 163.93H180.83L191.48 133.14H255.85L266.5 163.93H300.77L242.65 2.07996H204.91ZM200.28 107.2L223.67 39.59L247.05 107.2H200.28Z" fill="currentColor"></path><path d="M419.31 113.22L345.91 2.07996H313.5V163.93H345.91V53.02L419.31 163.93H451.73V2.07996H419.31V113.22Z" fill="currentColor"></path><path d="M527.78 36.01C535.11 31.61 543.49 29.41 552.9 29.41C561.7 29.41 569.45 31.34 576.17 35.2C582.88 39.06 588.09 44.85 591.8 52.57H629.08C623.67 36.21 614.18 23.4 600.6 14.13C587.02 4.86999 571.19 0.23999 553.14 0.23999C537.7 0.23999 523.77 3.74999 511.35 10.78C498.92 17.8 489.12 27.61 481.95 40.19C474.77 52.77 471.18 67.01 471.18 82.91C471.18 98.81 474.77 113.01 481.95 125.51C489.13 138.01 498.93 147.78 511.35 154.8C523.77 161.82 537.71 165.34 553.14 165.34C571.35 165.34 587.21 160.75 600.72 151.56C614.22 142.38 623.68 129.53 629.08 113.01H591.8C588.09 120.73 582.88 126.55 576.17 130.49C569.46 134.43 561.7 136.4 552.9 136.4C543.48 136.4 535.11 134.2 527.78 129.8C520.45 125.4 514.73 119.15 510.65 111.05C506.56 102.95 504.51 93.57 504.51 82.92C504.51 72.27 506.55 62.7 510.65 54.67C514.74 46.65 520.45 40.43 527.78 36.03" fill="currentColor"></path><path d="M763.49 10.65C750.91 3.55 736.98 0 721.7 0C706.42 0 692.68 3.55 680.02 10.65C667.36 17.75 657.33 27.59 649.92 40.17C642.51 52.75 638.81 66.91 638.81 82.66C638.81 98.41 642.52 112.8 649.92 125.38C657.33 137.96 667.36 147.8 680.02 154.9C692.68 162 706.57 165.55 721.7 165.55C736.83 165.55 750.72 162 763.38 154.9C776.04 147.8 786.03 137.96 793.37 125.38C800.7 112.8 804.37 98.56 804.37 82.66C804.37 66.76 800.7 52.75 793.37 40.17C786.04 27.59 776.08 17.75 763.5 10.65M764.77 111.14C760.6 119.32 754.81 125.61 747.4 130.01C739.99 134.41 731.42 136.61 721.7 136.61C711.98 136.61 703.37 134.41 695.88 130.01C688.39 125.61 682.57 119.32 678.4 111.14C674.23 102.96 672.15 93.47 672.15 82.66C672.15 71.85 674.23 62.4 678.4 54.29C682.57 46.19 688.39 39.98 695.88 35.65C703.37 31.33 711.97 29.17 721.7 29.17C731.43 29.17 739.99 31.33 747.4 35.65C754.81 39.97 760.6 46.18 764.77 54.29C768.94 62.39 771.02 71.85 771.02 82.66C771.02 93.47 768.94 102.96 764.77 111.14Z" fill="currentColor"></path><path d="M963.42 2.31995L912.02 122.48L860.61 2.31995H823.8V163.93H856.21V58.8099L899.74 163.93H924.29L967.58 58.8099V163.93H1000V2.31995H963.42Z" fill="currentColor"></path><path d="M32.4 2.32007H0V65.6201H32.4V2.32007Z" fill="currentColor"></path><path d="M32.4 98.04H0V163.93H32.4V98.04Z" fill="currentColor"></path><path d="M134.06 2.32007H101.66V65.6201H134.06V2.32007Z" fill="currentColor"></path><path d="M134.06 65.6201H32.3999V98.0201H134.06V65.6201Z" fill="#FC5E20"></path><path d="M134.06 98.04H101.66V163.93H134.06V98.04Z" fill="currentColor"></path></svg>