<?xml version="1.0" encoding="UTF-8"?>
<svg id="a" data-name="i-prod-office" xmlns="http://www.w3.org/2000/svg" viewBox="0 0 60 60">
  <path d="M28.118513,10.463102c8.114502-1.273149,16.248402-2.47376,24.382202-3.6282v21.914499c-8.127403.033001-16.254803.1583-24.388601.1847V10.463102h.006399Z" style="fill: #0085e6;"/>
  <path d="M7.510503,13.413302c6.11321-.9698,12.252211-1.801,18.391211-2.585999,0,6.062499,0,12.111699.012899,18.1741-6.1325,0-12.2651.0924-18.39767.072599v-15.6607h-.00644Z" style="fill: #0085e6;"/>
  <path d="M7.509133,30.976202c6.12608-.0198,12.258681.079201,18.384779.072599,0,6.075602.012901,12.151201,0,18.226801-6.119699-.930099-12.258699-1.741501-18.39122-2.592499v-15.700302l.00644-.006599Z" style="fill: #0085e6;"/>
  <path d="M28.084713,31.221602h24.4209c.012802,7.289501,0,14.5723,0,21.861702-8.114601-1.246803-16.248398-2.401203-24.382299-3.535801-.0128-6.1087-.0257-12.2173-.038601-18.325901Z" style="fill: #0085e6;"/>
</svg>